<svg xmlns="http://www.w3.org/2000/svg" viewBox="0 0 16 16" xmlns:v="https://vecta.io/nano"><path d="M8 11H4V7h1V6h6v1h1v2H9v1H8z" fill="#4c4c4c"/><path d="M6 6V5H4v1H3v4h1V7h1V6zm6 2h1v2h-1zm1-1V5h-3v1h2v1zm-8 6h4v1H5z" fill="#333"/><path d="M8 13H5v-1H4v-1H3v-1h1v1h4v2" fill="#dae0ea"/><path d="M5 13H4v-1H2v-1H1V9h1v1h1v1h1v1h1v1m9-1h-1v-2h1V9h1v2h-1v1" fill="#6d758d"/><path d="M13 8h-1V7h-1V6h1v1h1v1" fill="#fff"/><path d="M11 15H5v-1H3v-2H2v-1H1V9h1V7h1V5h2V4h1v1h1v1h2V5h1V4h1v1h2v2h1v2h1v2h-1v1h-1v-2h-1V9H9v1H8v3h1v1h2v1m2-1v-1h-1v1h1m-2 2v-1h2v-1h1v-2h1v-1h1V9h-1V7h-1V5h-1V4h-2V3h1V1h-1V0H5v1H4v2h1v1H3v1H2v2H1v2H0v2h1v1h1v2h1v1h2v1h6"/><g fill="#262626"><path d="M5 4h1v1H5zM3 5h1v1H3zM2 7h1v3H2zm7-2h1v1H9z"/><path d="M10 4h1v1h-1zm3 3h1v3h-1zM3 12h1v1h1v1H3z"/><path d="M5 14h6v1H5zm7-1h1v1h-1zM6 5h1v1H6zm6 0h1v1h-1z"/></g><path d="M12 13H9v-3h3v3" fill="#df3e23"/><path d="M9 5H8V3h1v2" fill="#4a5462"/><path d="M8 5H7V3h1v2" fill="#333941"/><path d="M5 1h6v1H5V1" fill="#f78697"/><path d="M11 3H5V2h6v1" fill="#dc4a7b"/></svg>