<svg width="16" height="16" viewBox="0 0 16 16" fill="none" xmlns="http://www.w3.org/2000/svg">
<path d="M3 14C2.71111 14 2.47222 13.9055 2.28333 13.7166C2.09444 13.5277 2 13.2888 2 13V2.99996C2 2.71107 2.09444 2.47218 2.28333 2.28329C2.47222 2.0944 2.71111 1.99996 3 1.99996H6.36667C6.44444 1.61107 6.63611 1.29163 6.94167 1.04163C7.24722 0.791626 7.6 0.666626 8 0.666626C8.4 0.666626 8.75278 0.791626 9.05833 1.04163C9.36389 1.29163 9.55556 1.61107 9.63333 1.99996H13C13.2889 1.99996 13.5278 2.0944 13.7167 2.28329C13.9056 2.47218 14 2.71107 14 2.99996V13C14 13.2888 13.9056 13.5277 13.7167 13.7166C13.5278 13.9055 13.2889 14 13 14H3ZM3 13H13V2.99996H12V4.49996H4V2.99996H3V13ZM8 2.99996C8.18889 2.99996 8.34722 2.93607 8.475 2.80829C8.60278 2.68051 8.66667 2.52218 8.66667 2.33329C8.66667 2.1444 8.60278 1.98607 8.475 1.85829C8.34722 1.73051 8.18889 1.66663 8 1.66663C7.81111 1.66663 7.65278 1.73051 7.525 1.85829C7.39722 1.98607 7.33333 2.1444 7.33333 2.33329C7.33333 2.52218 7.39722 2.68051 7.525 2.80829C7.65278 2.93607 7.81111 2.99996 8 2.99996Z" fill="#000010" fill-opacity="0.5"/>
</svg>
