<svg width="16" height="16" viewBox="0 0 16 16" fill="none" xmlns="http://www.w3.org/2000/svg">
<path d="M8 14C7.27778 14 6.60556 13.8278 5.98334 13.4833C5.36111 13.1389 4.9 12.6444 4.6 12H2.66667V11H4.2C4.12222 10.7111 4.08333 10.4194 4.08333 10.125V9.23333H2.65V8.23333H4.08333C4.08333 7.91111 4.08611 7.59167 4.09167 7.275C4.09722 6.95833 4.14445 6.64444 4.23333 6.33333H2.66667V5.33333H4.66667C4.82222 5.02222 5.02778 4.75 5.28334 4.51667C5.53889 4.28333 5.82222 4.08889 6.13333 3.93333L4.85 2.66667L5.51667 2L7.08334 3.56667C7.39445 3.45556 7.70834 3.4 8.025 3.4C8.34167 3.4 8.65556 3.45556 8.96667 3.56667L10.5333 2L11.2 2.66667L9.93333 3.93333C10.2444 4.08889 10.5194 4.28611 10.7583 4.525C10.9972 4.76389 11.2056 5.03333 11.3833 5.33333H13.35V6.33333H11.7667C11.8667 6.64444 11.9139 6.95833 11.9083 7.275C11.9028 7.59167 11.9 7.91111 11.9 8.23333H13.35V9.23333H11.9C11.9 9.53333 11.9028 9.83056 11.9083 10.125C11.9139 10.4194 11.8778 10.7111 11.8 11H13.35V12H11.4167C11.1278 12.6556 10.6694 13.1528 10.0417 13.4917C9.41389 13.8306 8.73333 14 8 14ZM8 13C8.8 13 9.48334 12.7194 10.05 12.1583C10.6167 11.5972 10.9 10.9167 10.9 10.1167V7.33333C10.9 6.53333 10.6167 5.85278 10.05 5.29167C9.48334 4.73056 8.8 4.45 8 4.45C7.2 4.45 6.51667 4.73056 5.95 5.29167C5.38334 5.85278 5.1 6.53333 5.1 7.33333V10.1167C5.1 10.9167 5.38334 11.5972 5.95 12.1583C6.51667 12.7194 7.2 13 8 13ZM6.66667 10.6667H9.33333V9.66667H6.66667V10.6667ZM6.66667 7.78333H9.33333V6.78333H6.66667V7.78333ZM8 8.73333H8.00834H8H8.00834H8H8.00834H8H8.00834H8Z" fill="#000010" fill-opacity="0.5"/>
</svg>
