<svg width="180" height="35" viewBox="0 0 180 35" fill="none" xmlns="http://www.w3.org/2000/svg">
<g clip-path="url(#clip0_216_509)">
<path d="M44.8434 9.04421C46.8986 9.04421 48.6061 9.56206 49.9657 10.5978C51.3254 11.6335 52.2423 13.038 52.7166 14.8112H49.8472C49.4519 13.8069 48.8195 13.0144 47.95 12.4338C47.0963 11.8375 46.0449 11.5393 44.796 11.5393C43.7999 11.5393 42.9067 11.7826 42.1162 12.269C41.3415 12.7555 40.725 13.4538 40.2665 14.364C39.8238 15.2585 39.6025 16.3099 39.6025 17.5182C39.6025 18.7108 39.8238 19.7623 40.2665 20.6724C40.725 21.5669 41.3415 22.2574 42.1162 22.7438C42.9067 23.2303 43.7999 23.4736 44.796 23.4736C46.0449 23.4736 47.0963 23.1832 47.95 22.6026C48.8195 22.0063 49.4519 21.2138 49.8472 20.2252H52.7166C52.2423 21.9984 51.3254 23.4029 49.9657 24.4386C48.6061 25.4587 46.8986 25.9687 44.8434 25.9687C43.2624 25.9687 41.8633 25.6156 40.6459 24.9094C39.4286 24.1876 38.4879 23.1911 37.8239 21.92C37.1599 20.6332 36.8279 19.1659 36.8279 17.5182C36.8279 15.8705 37.1599 14.4111 37.8239 13.14C38.4879 11.8532 39.4286 10.8489 40.6459 10.127C41.8633 9.40514 43.2624 9.04421 44.8434 9.04421ZM63.8801 8.99713C65.4294 8.99713 66.8286 9.35806 68.0775 10.0799C69.3423 10.8018 70.3304 11.814 71.0419 13.1164C71.7691 14.4032 72.1327 15.8626 72.1327 17.4947C72.1327 19.1267 71.7691 20.594 71.0419 21.8964C70.3304 23.1832 69.3423 24.1954 68.0775 24.933C66.8286 25.6548 65.4294 26.0157 63.8801 26.0157C62.3149 26.0157 60.8999 25.6548 59.6352 24.933C58.3862 24.1954 57.3981 23.1832 56.6709 21.8964C55.9436 20.594 55.58 19.1267 55.58 17.4947C55.58 15.8626 55.9436 14.4032 56.6709 13.1164C57.3981 11.814 58.3862 10.8018 59.6352 10.0799C60.8999 9.35806 62.3149 8.99713 63.8801 8.99713ZM63.8801 11.4923C62.805 11.4923 61.8485 11.7355 61.0106 12.222C60.1727 12.7084 59.5166 13.4067 59.0423 14.3169C58.5838 15.2271 58.3546 16.2863 58.3546 17.4947C58.3546 18.703 58.5838 19.7623 59.0423 20.6724C59.5166 21.5826 60.1727 22.2809 61.0106 22.7674C61.8485 23.2539 62.805 23.4971 63.8801 23.4971C64.9393 23.4971 65.88 23.2539 66.7021 22.7674C67.54 22.2809 68.1882 21.5826 68.6467 20.6724C69.121 19.7623 69.3581 18.703 69.3581 17.4947C69.3581 16.2863 69.121 15.2271 68.6467 14.3169C68.1882 13.4067 67.54 12.7084 66.7021 12.222C65.88 11.7355 64.9393 11.4923 63.8801 11.4923ZM89.9432 17.4947C89.9432 19.1738 89.5954 20.641 88.8997 21.8964C88.2199 23.1362 87.216 24.1013 85.888 24.7917C84.5758 25.4822 83.0027 25.8274 81.1688 25.8274H75.5722V9.20898H81.1688C83.0027 9.20898 84.5758 9.55422 85.888 10.2447C87.216 10.9195 88.2199 11.8767 88.8997 13.1164C89.5954 14.3562 89.9432 15.8156 89.9432 17.4947ZM80.9554 23.4029C82.9632 23.4029 84.5046 22.8851 85.5797 21.8494C86.6548 20.8137 87.1923 19.3621 87.1923 17.4947C87.1923 15.6273 86.6548 14.1757 85.5797 13.14C84.5046 12.1043 82.9632 11.5864 80.9554 11.5864H78.2756V23.4029H80.9554ZM96.0783 11.3746V16.4119H102.244V18.4833H96.0783V23.6383H102.956V25.8274H93.3749V9.20898H102.956V11.3746H96.0783ZM115.089 25.8274L110.915 19.1895H108.994V25.8274H106.291V9.20898H112.196C114.109 9.20898 115.555 9.67191 116.536 10.5978C117.532 11.5236 118.03 12.7477 118.03 14.2698C118.03 15.5723 117.658 16.6394 116.915 17.4711C116.188 18.3028 115.129 18.8364 113.737 19.0718L118.124 25.8274H115.089ZM108.994 17.2828H111.982C114.164 17.2828 115.255 16.3256 115.255 14.4111C115.255 13.5009 114.986 12.7947 114.449 12.2926C113.927 11.7747 113.105 11.5158 111.982 11.5158H108.994V17.2828ZM135.477 8.92651C137.058 8.92651 138.489 9.29529 139.769 10.0328C141.066 10.7547 142.086 11.7669 142.829 13.0694C143.572 14.3562 143.943 15.8156 143.943 17.4476C143.943 19.0796 143.564 20.5469 142.805 21.8494C142.062 23.1519 141.042 24.1719 139.746 24.9094C138.465 25.6313 137.042 25.9922 135.477 25.9922C133.912 25.9922 132.481 25.6313 131.185 24.9094C129.904 24.1719 128.884 23.1519 128.126 21.8494C127.383 20.5469 127.011 19.0796 127.011 17.4476C127.011 15.8156 127.383 14.3562 128.126 13.0694C128.884 11.7669 129.904 10.7547 131.185 10.0328C132.481 9.29529 133.912 8.92651 135.477 8.92651ZM135.477 12.6692C134.149 12.6692 133.09 13.1007 132.299 13.9638C131.525 14.8112 131.137 15.9725 131.137 17.4476C131.137 18.907 131.525 20.0683 132.299 20.9314C133.09 21.7944 134.149 22.226 135.477 22.226C136.789 22.226 137.841 21.7944 138.631 20.9314C139.422 20.0683 139.817 18.907 139.817 17.4476C139.817 15.9882 139.422 14.8269 138.631 13.9638C137.856 13.1007 136.805 12.6692 135.477 12.6692ZM161.825 25.8274H157.77L150.988 15.6116V25.8274H146.933V9.18544H150.988L157.77 19.4955V9.18544H161.825V25.8274ZM169.393 12.3867V15.8705H175.061V18.907H169.393V22.6026H175.773V25.8274H165.338V9.18544H175.773V12.3867H169.393Z" fill="#25252B"/>
<path d="M19.2794 26.6447C24.2364 26.6447 28.2547 22.656 28.2547 17.7358C28.2547 12.8156 24.2364 8.82703 19.2794 8.82703C14.3225 8.82703 10.3041 12.8156 10.3041 17.7358C10.3041 22.656 14.3225 26.6447 19.2794 26.6447Z" fill="#25252B"/>
<path fill-rule="evenodd" clip-rule="evenodd" d="M8.64007 9.04407V26.6418C3.84779 26.5221 -3.0939e-05 22.6286 -3.05176e-05 17.843C-3.00962e-05 13.0574 3.84779 9.16377 8.64007 9.04407Z" fill="#25252B"/>
</g>
<defs>
<clipPath id="clip0_216_509">
<rect width="180" height="34.491" fill="white"/>
</clipPath>
</defs>
</svg>
