<svg xmlns="http://www.w3.org/2000/svg" viewBox="0 -0.5 16 16" shape-rendering="crispEdges">
<metadata>Made with Pixels to Svg https://codepen.io/shshaw/pen/XbxvNj</metadata>
<path stroke="#c7dcd0" d="M4 0h5M3 1h1M2 2h1M1 3h1M1 4h1M1 5h1M1 6h1M1 7h1M14 7h1M1 8h1M14 8h1M2 9h1M13 9h1M3 10h4" />
<path stroke="#ffffff" d="M9 0h3M12 1h1M13 2h1M14 3h1M14 4h1M6 5h2M10 5h2M14 5h1M14 6h1M7 10h6" />
<path stroke="#2e222f" d="M8 1h1M11 1h1M5 2h3M9 2h3M4 3h1M12 3h1M3 4h1M13 4h1M3 5h1M13 5h1M3 6h1M6 6h2M10 6h2M13 6h1M3 7h1M6 7h2M10 7h2M13 7h1M3 8h1M13 8h1M4 9h1M12 9h1M3 11h2M12 11h1M4 12h1M12 12h1M3 13h1M12 13h1M2 14h1M12 14h1M2 15h11" />
<path stroke="#4d65b4" d="M9 1h1M8 2h1M5 3h1M4 4h3M4 5h2M4 6h2M4 7h2M4 8h4M5 9h2M5 12h4M4 13h5M3 14h7" />
<path stroke="#4d9be6" d="M10 1h1M6 3h6M7 4h6M8 5h2M12 5h1M8 6h2M12 6h1M8 7h2M12 7h1M8 8h5M7 9h5M9 12h3M9 13h3M10 14h2" />
<path stroke="#3e3546" d="M5 11h7" />
</svg>