<svg xmlns="http://www.w3.org/2000/svg" viewBox="0 -0.5 16 16" shape-rendering="crispEdges">
<metadata>Made with Pixels to Svg https://codepen.io/shshaw/pen/XbxvNj</metadata>
<path stroke="#c7dcd0" d="M4 2h5M3 3h1M2 4h1M1 5h1M1 6h1M1 7h1M1 8h1M1 9h1M14 9h1M1 10h1M14 10h1M2 11h1M13 11h1M3 12h4" />
<path stroke="#ffffff" d="M9 2h3M12 3h1M13 4h1M14 5h1M14 6h1M6 7h2M10 7h2M14 7h1M14 8h1M7 12h6" />
<path stroke="#2e222f" d="M8 3h4M5 4h3M11 4h1M4 5h1M9 5h2M12 5h1M3 6h1M13 6h1M3 7h1M13 7h1M3 8h1M6 8h2M10 8h2M13 8h1M3 9h1M6 9h2M10 9h2M13 9h1M3 10h1M13 10h1M4 11h1M12 11h1M1 13h4M12 13h3M0 14h1M15 14h1M0 15h16" />
<path stroke="#f79617" d="M8 4h2M5 5h1M4 6h3M4 7h2M4 8h2M4 9h2M4 10h4M5 11h2M1 14h14" />
<path stroke="#f9c22b" d="M10 4h1M6 5h3M11 5h1M7 6h6M8 7h2M12 7h1M8 8h2M12 8h1M8 9h2M12 9h1M8 10h5M7 11h5" />
<path stroke="#3e3546" d="M5 13h7" />
</svg>