<svg xmlns="http://www.w3.org/2000/svg" viewBox="0 -0.5 16 16" shape-rendering="crispEdges">
<metadata>Made with Pixels to Svg https://codepen.io/shshaw/pen/XbxvNj</metadata>
<path stroke="#2e222f" d="M4 0h8M3 1h1M12 1h2M2 2h1M14 2h1M1 3h1M14 3h1M1 4h1M14 4h1M0 5h1M15 5h1M0 6h1M15 6h1M0 7h1M6 7h2M10 7h2M15 7h1M0 8h1M6 8h2M10 8h2M15 8h1M0 9h1M15 9h1M1 10h1M14 10h1M2 11h1M13 11h1M3 12h1M12 12h1M2 13h2M12 13h2M1 14h1M14 14h1M1 15h1M14 15h1" />
<path stroke="#8fd3ff" d="M4 1h8M3 2h11M3 3h11M3 4h2M12 4h2M3 5h1M13 5h2M3 6h1M13 6h2M3 7h1M13 7h2M3 8h1M13 8h2M3 9h1M13 9h2M13 10h1" />
<path stroke="#4d9be6" d="M2 3h1M2 4h1M1 5h2M1 6h2M1 7h2M1 8h2M1 9h2M2 10h2M3 11h10M4 12h8" />
<path stroke="#8ff8e2" d="M5 4h7M4 5h9M4 6h2M8 6h2M12 6h1M4 7h2M8 7h2M12 7h1M4 8h2M8 8h2M12 8h1M4 9h9" />
<path stroke="#ffffff" d="M6 6h2M10 6h2" />
<path stroke="#30e1b9" d="M4 10h9M6 13h6M6 14h8" />
<path stroke="#0eaf9b" d="M4 13h2M2 14h4M2 15h12" />
</svg>