<svg xmlns="http://www.w3.org/2000/svg" viewBox="0 -0.5 16 16" shape-rendering="crispEdges">
<metadata>Made with Pixels to Svg https://codepen.io/shshaw/pen/XbxvNj</metadata>
<path stroke="#c7dcd0" d="M4 1h5M3 2h1M2 3h1M1 4h1M1 5h1M1 6h1M1 7h1M1 8h1M14 8h1M1 9h1M14 9h1M2 10h1M13 10h1M3 11h4" />
<path stroke="#ffffff" d="M9 1h3M12 2h1M13 3h1M14 4h1M14 5h1M6 6h2M10 6h2M14 6h1M14 7h1M7 11h6" />
<path stroke="#2e222f" d="M8 2h4M5 3h3M11 3h1M4 4h1M9 4h2M12 4h1M3 5h1M13 5h1M3 6h1M13 6h1M3 7h1M6 7h2M10 7h2M13 7h1M3 8h1M6 8h2M10 8h2M13 8h1M3 9h1M13 9h1M4 10h1M12 10h1M3 12h2M12 12h1M2 13h2M13 13h1M1 14h1M14 14h1M1 15h14" />
<path stroke="#4d65b4" d="M8 3h2M5 4h1M4 5h3M4 6h2M4 7h2M4 8h2M4 9h4M5 10h2M4 13h5M2 14h12" />
<path stroke="#4d9be6" d="M10 3h1M6 4h3M11 4h1M7 5h6M8 6h2M12 6h1M8 7h2M12 7h1M8 8h2M12 8h1M8 9h5M7 10h5M9 13h4" />
<path stroke="#3e3546" d="M5 12h7" />
</svg>