<svg xmlns="http://www.w3.org/2000/svg" viewBox="0 -0.5 16 16" shape-rendering="crispEdges">
<metadata>Made with Pixels to Svg https://codepen.io/shshaw/pen/XbxvNj</metadata>
<path stroke="#2e222f" d="M4 1h7M3 2h1M11 2h1M2 3h1M12 3h1M2 4h1M12 4h1M2 5h1M4 5h1M13 5h1M2 6h1M4 6h1M13 6h1M2 7h1M4 7h1M13 7h1M2 8h1M5 8h1M12 8h1M1 9h1M6 9h7M1 10h1M11 10h1M1 11h1M3 11h9M2 12h2M11 12h1M1 13h1M6 13h3M11 13h1M1 14h5M9 14h1M11 14h1M10 15h2" />
<path stroke="#4d9be6" d="M4 2h5M3 3h3M3 4h2M3 5h1M3 6h1M3 7h1M3 8h2M3 9h3M3 10h7M4 12h3M9 12h1" />
<path stroke="#8ff8e2" d="M9 2h2M10 10h1M10 12h1" />
<path stroke="#323353" d="M6 3h4M5 4h6M5 5h7M5 6h7M5 7h7M6 8h6" />
<path stroke="#484a77" d="M10 3h2M11 4h1M12 5h1M12 6h1M12 7h1M2 13h4M9 13h2M10 14h1" />
<path stroke="#4d65b4" d="M2 9h1M2 10h1M2 11h1" />
<path stroke="#e83b3b" d="M7 12h1" />
<path stroke="#f9c22b" d="M8 12h1" />
</svg>