<svg xmlns="http://www.w3.org/2000/svg" viewBox="0 -0.5 16 16" shape-rendering="crispEdges">
<metadata>Made with Pixels to Svg https://codepen.io/shshaw/pen/XbxvNj</metadata>
<path stroke="#2e222f" d="M4 2h7M3 3h1M11 3h1M2 4h1M12 4h1M2 5h1M12 5h1M2 6h1M4 6h1M13 6h1M2 7h1M4 7h1M13 7h1M2 8h1M4 8h1M13 8h1M2 9h1M5 9h1M12 9h1M1 10h1M6 10h7M1 11h1M11 11h1M1 12h1M3 12h9M11 13h1M7 14h2M11 14h1M3 15h4M8 15h4" />
<path stroke="#905ea9" d="M4 3h2M3 4h3M3 5h2M3 6h1M3 7h1M3 8h1M3 9h2M3 10h3M3 11h4M3 13h4" />
<path stroke="#a884f3" d="M6 3h5M7 11h4M9 13h2" />
<path stroke="#323353" d="M6 4h6M5 5h6M5 6h7M5 7h7M5 8h7M6 9h5" />
<path stroke="#f2f1f0" d="M11 5h1M12 6h1M12 7h1M12 8h1M11 9h1M1 13h1M2 14h1" />
<path stroke="#6b3e75" d="M2 10h1M2 11h1M2 12h1" />
<path stroke="#68deee" d="M2 13h1" />
<path stroke="#e83b3b" d="M7 13h1" />
<path stroke="#f9c22b" d="M8 13h1" />
<path stroke="#484a77" d="M3 14h4M9 14h2" />
</svg>