<svg xmlns="http://www.w3.org/2000/svg" viewBox="0 -0.5 16 16" shape-rendering="crispEdges">
<metadata>Made with Pixels to Svg https://codepen.io/shshaw/pen/XbxvNj</metadata>
<path stroke="#2e222f" d="M4 0h7M3 1h1M11 1h1M2 2h1M12 2h1M2 3h1M12 3h1M2 4h1M4 4h1M13 4h1M2 5h1M4 5h1M13 5h1M2 6h1M4 6h1M13 6h1M2 7h1M5 7h1M12 7h1M1 8h1M6 8h7M1 9h1M11 9h1M1 10h1M3 10h9M1 11h1M11 11h1M2 12h1M6 12h4M12 12h1M2 13h1M4 13h2M9 13h4M2 14h3" />
<path stroke="#905ea9" d="M4 1h2M3 2h3M3 3h2M3 4h1M3 5h1M3 6h1M3 7h2M3 8h3M3 9h4M3 11h4" />
<path stroke="#a884f3" d="M6 1h5M7 9h4M9 11h2" />
<path stroke="#323353" d="M6 2h4M5 3h6M5 4h7M5 5h7M5 6h7M6 7h6" />
<path stroke="#484a77" d="M10 2h2M11 3h1M12 4h1M12 5h1M12 6h1M3 12h3M10 12h2M3 13h1" />
<path stroke="#6b3e75" d="M2 8h1M2 9h1M2 10h1M2 11h1" />
<path stroke="#e83b3b" d="M7 11h1" />
<path stroke="#8fd3ff" d="M8 11h1" />
</svg>