<svg xmlns="http://www.w3.org/2000/svg" viewBox="0 0 16 16" xmlns:v="https://vecta.io/nano"><path d="M1 2V1h1V0h12v1h1v1h1v12h-1v1h-1v1H2v-1H1v-1H0V2z" fill="#143464"/><path d="M14 15H2v-1H1V2h1V1h12v1h1v12h-1z" fill="#285cc4"/><path d="M3 8V5h2V4h2V3h1V2h1v1h1v6H9v1H5V9H4V8z" fill="#ffd541"/><path d="M9 3V1h1v1h1V1h1v9h-1v1h-1v1H3v-1H2v-1H1V8h1V6h1v2h1v1h1v1h4V9h1V3H9" fill="#f9a31b"/><path d="M12 2h1V1h1v10h-1v2h-1v1H4v-1H2v-1H1v-2h1v1h1v1h3v1h2v-1h2v-1h1v-1h1V2" fill="#fa6a0a"/><path d="M3 13v1h1v1h8v-1h1v-1h1v-2h1V3h-1v8h-1v2h-1v1H4v-1H3" fill="#b4202a"/><path d="M5 6h1v4H5V6m3 0h1v4H8V6m-3 5h4v1H8v1H6v-1H5v-1"/></svg>