<?xml version="1.0" encoding="UTF-8" ?>
<svg version="1.1" width="16" height="16" xmlns="http://www.w3.org/2000/svg" shape-rendering="crispEdges">
<rect x="4" y="1" width="1" height="1" fill="#FA6A0A" />
<rect x="10" y="1" width="1" height="1" fill="#FA6A0A" />
<rect x="1" y="2" width="1" height="1" fill="#DF3E23" />
<rect x="3" y="2" width="1" height="1" fill="#F9A31B" />
<rect x="11" y="2" width="1" height="1" fill="#F9A31B" />
<rect x="13" y="2" width="1" height="1" fill="#B4202A" />
<rect x="1" y="5" width="1" height="1" fill="#FA6A0A" />
<rect x="14" y="5" width="1" height="1" fill="#FA6A0A" />
<rect x="0" y="7" width="1" height="1" fill="#DF3E23" />
<rect x="15" y="7" width="1" height="1" fill="#B4202A" />
<rect x="12" y="10" width="1" height="1" fill="#FA6A0A" />
<rect x="2" y="11" width="1" height="1" fill="#FA6A0A" />
<rect x="9" y="11" width="1" height="1" fill="#F9A31B" />
<rect x="14" y="11" width="1" height="1" fill="#DF3E23" />
<rect x="0" y="12" width="1" height="1" fill="#B4202A" />
<rect x="5" y="12" width="1" height="1" fill="#F9A31B" />
<rect x="10" y="13" width="1" height="1" fill="#DF3E23" />
<rect x="4" y="14" width="1" height="1" fill="#B4202A" />
</svg>