<?xml version="1.0" encoding="UTF-8" ?>
<svg version="1.1" width="16" height="16" xmlns="http://www.w3.org/2000/svg" shape-rendering="crispEdges">
<rect x="3" y="0" width="1" height="1" fill="#DF3E23" />
<rect x="12" y="0" width="1" height="1" fill="#DF3E23" />
<rect x="2" y="1" width="1" height="1" fill="#B4202A" />
<rect x="3" y="1" width="1" height="1" fill="#B4202A" />
<rect x="4" y="1" width="1" height="1" fill="#DF3E23" />
<rect x="5" y="1" width="1" height="1" fill="#F9A31B" />
<rect x="10" y="1" width="1" height="1" fill="#F9A31B" />
<rect x="11" y="1" width="1" height="1" fill="#DF3E23" />
<rect x="13" y="1" width="1" height="1" fill="#DF3E23" />
<rect x="1" y="2" width="1" height="1" fill="#B4202A" />
<rect x="3" y="2" width="1" height="1" fill="#F9A31B" />
<rect x="4" y="2" width="1" height="1" fill="#FFD541" />
<rect x="5" y="2" width="1" height="1" fill="#FFD541" />
<rect x="10" y="2" width="1" height="1" fill="#B4202A" />
<rect x="11" y="2" width="1" height="1" fill="#B4202A" />
<rect x="12" y="2" width="1" height="1" fill="#F9A31B" />
<rect x="14" y="2" width="1" height="1" fill="#DF3E23" />
<rect x="3" y="3" width="1" height="1" fill="#FA6A0A" />
<rect x="12" y="3" width="1" height="1" fill="#B4202A" />
<rect x="0" y="4" width="1" height="1" fill="#DF3E23" />
<rect x="3" y="4" width="1" height="1" fill="#FA6A0A" />
<rect x="12" y="4" width="1" height="1" fill="#B4202A" />
<rect x="15" y="4" width="1" height="1" fill="#DF3E23" />
<rect x="0" y="5" width="1" height="1" fill="#B4202A" />
<rect x="1" y="5" width="1" height="1" fill="#F9A31B" />
<rect x="5" y="5" width="1" height="1" fill="#FFD541" />
<rect x="10" y="5" width="1" height="1" fill="#FFD541" />
<rect x="14" y="5" width="1" height="1" fill="#F9A31B" />
<rect x="15" y="5" width="1" height="1" fill="#B4202A" />
<rect x="0" y="6" width="1" height="1" fill="#B4202A" />
<rect x="1" y="6" width="1" height="1" fill="#FA6A0A" />
<rect x="4" y="6" width="1" height="1" fill="#F9A31B" />
<rect x="7" y="6" width="1" height="1" fill="#FFD541" />
<rect x="8" y="6" width="1" height="1" fill="#FFD541" />
<rect x="11" y="6" width="1" height="1" fill="#F9A31B" />
<rect x="14" y="6" width="1" height="1" fill="#FA6A0A" />
<rect x="15" y="6" width="1" height="1" fill="#B4202A" />
<rect x="0" y="7" width="1" height="1" fill="#B4202A" />
<rect x="6" y="7" width="1" height="1" fill="#F9A31B" />
<rect x="7" y="7" width="1" height="1" fill="#FFD541" />
<rect x="8" y="7" width="1" height="1" fill="#FFD541" />
<rect x="9" y="7" width="1" height="1" fill="#FFD541" />
<rect x="14" y="7" width="1" height="1" fill="#B4202A" />
<rect x="15" y="7" width="1" height="1" fill="#DF3E23" />
<rect x="1" y="8" width="1" height="1" fill="#B4202A" />
<rect x="6" y="8" width="1" height="1" fill="#FFD541" />
<rect x="7" y="8" width="1" height="1" fill="#FFD541" />
<rect x="8" y="8" width="1" height="1" fill="#FFD541" />
<rect x="9" y="8" width="1" height="1" fill="#F9A31B" />
<rect x="7" y="9" width="1" height="1" fill="#FFD541" />
<rect x="8" y="9" width="1" height="1" fill="#FFD541" />
<rect x="1" y="10" width="1" height="1" fill="#FA6A0A" />
<rect x="5" y="10" width="1" height="1" fill="#FFD541" />
<rect x="10" y="10" width="1" height="1" fill="#FFD541" />
<rect x="14" y="10" width="1" height="1" fill="#FA6A0A" />
<rect x="0" y="11" width="1" height="1" fill="#B4202A" />
<rect x="2" y="11" width="1" height="1" fill="#FFD541" />
<rect x="6" y="11" width="1" height="1" fill="#DF3E23" />
<rect x="9" y="11" width="1" height="1" fill="#DF3E23" />
<rect x="13" y="11" width="1" height="1" fill="#FFD541" />
<rect x="15" y="11" width="1" height="1" fill="#B4202A" />
<rect x="0" y="12" width="1" height="1" fill="#B4202A" />
<rect x="1" y="12" width="1" height="1" fill="#FA6A0A" />
<rect x="5" y="12" width="1" height="1" fill="#FA6A0A" />
<rect x="7" y="12" width="1" height="1" fill="#FA6A0A" />
<rect x="8" y="12" width="1" height="1" fill="#FA6A0A" />
<rect x="10" y="12" width="1" height="1" fill="#FA6A0A" />
<rect x="14" y="12" width="1" height="1" fill="#FA6A0A" />
<rect x="15" y="12" width="1" height="1" fill="#B4202A" />
<rect x="1" y="13" width="1" height="1" fill="#B4202A" />
<rect x="4" y="13" width="1" height="1" fill="#F9A31B" />
<rect x="11" y="13" width="1" height="1" fill="#F9A31B" />
<rect x="14" y="13" width="1" height="1" fill="#B4202A" />
<rect x="4" y="14" width="1" height="1" fill="#B4202A" />
<rect x="5" y="14" width="1" height="1" fill="#FA6A0A" />
<rect x="7" y="14" width="1" height="1" fill="#B4202A" />
<rect x="10" y="14" width="1" height="1" fill="#FA6A0A" />
<rect x="11" y="14" width="1" height="1" fill="#B4202A" />
<rect x="3" y="15" width="1" height="1" fill="#DF3E23" />
<rect x="5" y="15" width="1" height="1" fill="#B4202A" />
<rect x="6" y="15" width="1" height="1" fill="#B4202A" />
<rect x="9" y="15" width="1" height="1" fill="#DF3E23" />
<rect x="10" y="15" width="1" height="1" fill="#B4202A" />
<rect x="12" y="15" width="1" height="1" fill="#B4202A" />
</svg>