<svg xmlns="http://www.w3.org/2000/svg" viewBox="0 0 16 16" xmlns:v="https://vecta.io/nano"><path d="M5 4h7v6H5z" fill="#ffd541"/><path d="M14 8v4H3V3h9v3h-1V4H6v2h1v2H6v1H5v1h6V8h3" fill="#f9a31b"/><path d="M7 12v-2h2v2h2v-2h3V8h-2V7h-1V6h-1V5h1v1h1V4.3h-1V3H4v3h1v2H3v1h1v2h1v2H2V3h1V2h10v4h2v6h-2v2H6v-2h1" fill="#fa6a0a"/><path d="M11 14v-1h2v1h-1v1H3v-1H2v-2H1V5h1V3h1V2h4V1h5v2h2v4h1v4h-2v-1h1V6h-2V3h-2V2H7v1H6v1H3v2H2v4h1v3h3v1h5" fill="#df3e23"/><path d="M5 12h1v1H5v2h4v-2h1v2H9v1H5v-1H4v-2h1v-1m-1-2h1v1H4v1H1v-1H0V7h1V5h1V4h2V2h1v2H4v1h2v1H4v2h1v1H4V8H3V6h1V5H2v2H1v4h3v-1m3-8H5V1h2V0h4v1h1v1h1v2h-1v1h-2V4h2V2h-1V1H7v1m6 6h-1V5h1V4h1v1h1v2h1v4h-1v1h-3v-1h-1v-1h1v1h3V7h-1V5h-1v3m-4 4H7v-1H6v-1h1v1h2v-1h1v1H9v1" fill="#b4202a"/></svg>