<svg xmlns="http://www.w3.org/2000/svg" viewBox="0 0 16 16" xmlns:v="https://vecta.io/nano"><path d="M5 5h5v5H5z" fill="#ffd541"/><path d="M5 9H4V8h1v1m1-1H5V6h1v2m1 3H6v-1h1V9h3V6H9V4h3v7H7" fill="#f9a31b"/><path d="M7 6V5H3v7h1v1h8v-3h1V7h-2v1h1v1h-2v1H9V9H8v3H5V6h2" fill="#fa6a0a"/><path d="M9 4v1H6v1H5v2H4v1H3v1h1v1h1v-1h1v1h2v1H6v1H4v-1H3V5h3V4h3m1 6H8v1h2v-1m0 3v-1h1v-1h1v-1h1v2h-1v1h-2m3-4h-1V7h-1V6h-1V5h3v4" fill="#df3e23"/><path d="M10 4h2v1h1v7h-1v1h-1v1H9v-1H7v1H5v-1H4v-1H3v-1H2V8h1V5h1V4h2V3h4v1M8 5v1H7V5H5v1H4v2H3v3h1V9h1v2h1v1H5v-1H4v1h1v1h2v-1h1v-1H7v-1h1v1h2V9h1v2h-1v1H8v1h3v-1h1v-1h1V8h-1V5h-2v1H9V5h1V4H7v1h1" fill="#b4202a"/></svg>