<svg xmlns="http://www.w3.org/2000/svg" viewBox="0 0 16 16" xmlns:v="https://vecta.io/nano"><g fill="#ffd541"><path d="M13 6v5h-1v1H6v-1H3V6h3V4h4v1h1v1z"/><path d="M5 5H3V2h3v2H5zm8 0h-2V4h-1V3H9V2h4z"/></g><path d="M7 14H5v-2h1v1h1v-2h2v2h1v-1h1v2H9v-1H7v1m5-4h-1V8h1v2m-8 0H3V8h3V6h2v1H7v1H6v1H4v1m5-6H7V3H6V1h1v2h2V1h2v1H9v2" fill="#f9a31b"/><g fill="#fa6a0a"><path d="M15 9V6h-1v3h-2v1h-2v1h3v-1h1v1h-1v1h2v-2h-1V9h1m-3 6v-2h-2v2h2m-5 0H4v-2h2v1h1v1m-2-3v-1H4v-1H3V9H2v1H1v1h1v2h1v-2H2v-1h1v1h1v1h1"/><path d="M6 8H5V6h1v2M2 8H1V5h1v3m2-4H3V1h1V0h3v1H6v1H5v1H4v1m5-4v1h2v2h1v1h1V0H9"/></g><path d="M1 5H0V4h1v1m0 8v-2h1v2H1m14-1h-1v-1h1v1M13 2h-1V1h1v1" fill="#df3e23"/><g fill="#b4202a"><path d="M12 14h1v1h-1v1h-2v-1H9v-1h1v1h2v-1m-5 2v-1H4v-1H3v-1H1v-2H0v2h1v1h2v1h1v1h3m8-5h1v1h-1v1h-2v-1h2v-1m-6 2H7v-1H6v-1h1v1h2v1m3-1h-2v-1h3V8h-1v4m3-3h-1V8h2V6h-2V5h1v4m-9 1H5V5h2v1H4v3h2v1M2 9H1V4h1v1H0v3h2v1"/><path d="M3 4H2V2h5v1H6V1H3v3m11 0h-1V0h-3v2H9V1h5v3"/></g></svg>