<svg xmlns="http://www.w3.org/2000/svg" viewBox="0 -0.5 16 16" shape-rendering="crispEdges">
<metadata>Made with Pixels to Svg https://codepen.io/shshaw/pen/XbxvNj</metadata>
<path stroke="#2e222f" d="M0 0h16M0 1h1M15 1h1M0 2h1M15 2h1M0 3h1M15 3h1M0 4h1M15 4h1M0 5h1M15 5h1M0 6h1M15 6h1M0 7h1M15 7h1M0 8h16M0 9h1M15 9h1M0 10h1M15 10h1M0 11h1M6 11h1M9 11h1M15 11h1M0 12h1M6 12h1M9 12h1M15 12h1M0 13h1M15 13h1M0 14h1M15 14h1M0 15h16" />
<path stroke="#9e4539" d="M1 1h1M4 1h1M7 1h1M11 1h1M14 1h1M1 2h1M4 2h1M7 2h1M11 2h1M14 2h1M1 3h1M4 3h1M7 3h1M11 3h1M14 3h1M1 4h1M4 4h1M7 4h1M11 4h1M14 4h1M1 5h1M4 5h1M7 5h1M11 5h1M14 5h1M1 6h1M4 6h1M7 6h1M11 6h1M14 6h1M1 7h1M4 7h1M7 7h1M11 7h1M14 7h1M1 9h1M14 9h1M1 10h1M3 10h10M14 10h1M1 11h1M3 11h1M12 11h1M14 11h1M1 12h1M3 12h1M12 12h1M14 12h1M1 13h1M14 13h1M1 14h1M14 14h1" />
<path stroke="#cd683d" d="M2 1h2M5 1h2M8 1h3M12 1h2M2 2h2M5 2h2M8 2h3M12 2h2M2 3h2M5 3h2M8 3h3M12 3h2M2 4h2M5 4h2M8 4h3M12 4h2M2 5h2M5 5h2M8 5h3M12 5h2M2 6h2M5 6h2M8 6h3M12 6h2M2 7h2M5 7h2M8 7h3M12 7h2M2 9h12M2 10h1M13 10h1M2 11h1M4 11h2M7 11h2M10 11h2M13 11h1M2 12h1M4 12h2M7 12h2M10 12h2M13 12h1M2 13h1M13 13h1M2 14h12" />
<path stroke="#e6904e" d="M3 13h10" />
</svg>