<svg xmlns="http://www.w3.org/2000/svg" viewBox="0 -0.5 16 16" shape-rendering="crispEdges">
<metadata>Made with Pixels to Svg https://codepen.io/shshaw/pen/XbxvNj</metadata>
<path stroke="#a24b6f" d="M0 0h2M6 0h2M11 0h1M13 0h3M0 1h1M3 3h3M0 4h1M3 4h3M3 5h2M0 6h1M13 6h1M0 7h1M0 11h1M10 11h1M0 12h1" />
<path stroke="#cf657f" d="M2 0h4M8 0h3M12 0h1M1 1h14M0 2h3M6 2h9M0 3h2M6 3h9M1 4h1M6 4h10M0 5h2M5 5h11M1 6h12M14 6h2M1 7h15M0 8h15M0 9h16M0 10h16M1 11h9M11 11h4M1 12h15M0 13h15M0 14h15M2 15h2M5 15h1M8 15h6" />
<path stroke="#ed8099" d="M15 1h1M3 2h3M15 2h1M2 3h1M15 3h1M2 4h1M2 5h1M15 8h1M15 11h1M15 13h1M15 14h1M0 15h2M4 15h1M6 15h2M14 15h2" />
</svg>