<svg xmlns="http://www.w3.org/2000/svg" viewBox="0 -0.5 16 16" shape-rendering="crispEdges">
<metadata>Made with Pixels to Svg https://codepen.io/shshaw/pen/XbxvNj</metadata>
<path stroke="#a24b6f" d="M0 0h3M4 0h4M11 0h1M13 0h3M0 1h1M0 4h1M12 4h1M12 5h2M0 6h1M0 7h1M0 8h1M8 8h2M7 9h1M10 9h1M8 10h2M0 11h1M0 12h1M12 12h2M0 13h1M11 13h3M0 14h1" />
<path stroke="#cf657f" d="M3 0h1M8 0h3M12 0h1M1 1h14M0 2h15M0 3h12M13 3h2M1 4h11M14 4h1M0 5h12M14 5h1M1 6h15M1 7h7M10 7h5M1 8h6M11 8h4M0 9h7M8 9h2M11 9h5M0 10h8M10 10h6M1 11h11M14 11h2M1 12h10M14 12h2M1 13h10M14 13h2M1 14h15M3 15h2M6 15h1M11 15h1M13 15h3" />
<path stroke="#ed8099" d="M15 1h1M15 2h1M12 3h1M15 3h1M13 4h1M15 4h1M15 5h1M8 7h2M15 7h1M7 8h1M10 8h1M15 8h1M12 11h2M11 12h1M0 15h3M5 15h1M7 15h4M12 15h1" />
</svg>