<svg xmlns="http://www.w3.org/2000/svg" viewBox="0 0 16 16" xmlns:v="https://vecta.io/nano"><path d="M0 0h16v16H0z" fill="#483b3a"/><g fill="#775c55"><path d="M15 1h1v5h-1zm0 6h1v1h-1zm0 3h1v1h-1zM0 3h1v1H0zm3-1h1v1H3zm2-1h1v1H5zM3 13h1v1H3zm2 2h1v1H5z"/><path d="M0 16v-1h2v-1h1v2H0m7 0v-1h4v1H7h5v-1h3v-2h1v3h-4"/></g><g fill="#222"><path d="M13 0h3v1h-3zm-2 0h1v1h-1zM5 2h1v1H5zM3 3h1v1H3zM0 4h1v1H0zm4 9h1v1H4z"/><path d="M0 6h1v9H0zm5 10v-1H4v-1H3v2h2M0 2h1V1h2V0H0v2m5 0H4V0h4v1H5v1"/></g></svg>