<svg xmlns="http://www.w3.org/2000/svg" viewBox="0 -0.5 16 16" shape-rendering="crispEdges">
<metadata>Made with Pixels to Svg https://codepen.io/shshaw/pen/XbxvNj</metadata>
<path stroke="#a24b6f" d="M0 0h3M4 0h2M11 0h1M13 0h3M0 1h1M12 2h1M2 4h1M0 6h1M0 8h1M0 11h1M8 11h1M0 12h1M9 12h1M0 13h1M7 13h1M0 14h1" />
<path stroke="#cf657f" d="M3 0h1M6 0h5M12 0h1M1 1h11M13 1h2M0 2h12M13 2h2M0 3h2M3 3h12M0 4h2M3 4h13M0 5h16M1 6h15M0 7h15M1 8h15M0 9h15M0 10h8M9 10h6M1 11h7M10 11h6M1 12h6M8 12h1M10 12h6M1 13h6M8 13h7M1 14h14M3 15h2M6 15h2M11 15h3" />
<path stroke="#ed8099" d="M12 1h1M15 1h1M15 2h1M2 3h1M15 3h1M15 7h1M15 9h1M8 10h1M15 10h1M9 11h1M7 12h1M15 13h1M15 14h1M0 15h3M5 15h1M8 15h3M14 15h2" />
</svg>