<?xml version="1.0" encoding="utf-8"?>
<!-- Generator: Adobe Illustrator 26.0.1, SVG Export Plug-In . SVG Version: 6.00 Build 0)  -->
<svg version="1.1" id="Layer_1" xmlns:v="https://vecta.io/nano"
	 xmlns="http://www.w3.org/2000/svg" xmlns:xlink="http://www.w3.org/1999/xlink" x="0px" y="0px" viewBox="0 0 16 16"
	 style="enable-background:new 0 0 16 16;" xml:space="preserve">
<style type="text/css">
	.st0{fill:#72D6CE;}
	.st1{fill:#FDF7ED;}
	.st2{fill:#417089;}
	.st3{fill:#F78697;}
	.st4{fill:#DC4A7B;}
	.st5{fill:#222222;}
</style>
<path class="st0" d="M4,4h8v9H4V4z"/>
<path class="st1" d="M10,5V4h3v1h1v5h-1v3h-2V9h1V5H10"/>
<path class="st2" d="M6,13h3v2H8v-1H6V13 M12,10H7V9H6V6h1V5h5v1h1v2h-1V6h-1v2h-1V6H9v2H8V6H7v3h5V10"/>
<path class="st3" d="M9,4H7V2H6V1h2v1h1V4"/>
<path class="st4" d="M10,4H9V3h1V4 M7,4H6V3h1V4 M7,3H3V2h1V1h2v1h1V3"/>
<path class="st5" d="M10,16H8v-1H6v-1H4v-1H3V5h1V4H3V3H2V2h1V1h1V0h4v1h1v1h1v1h2v1h1v1h1v1l1,0v3l-1,0v1h-1v3h-1v1h-2V16 M5,2.5V2
	h1v2H5v1H4v8h2v1h2v1h1v-2h3V9l2,0V6h-2V4h-2V3H9V2H8V1H4v1H3v1h2"/>
<rect x="4" y="11" class="st2" width="8" height="1"/>
</svg>
