<?xml version="1.0" encoding="utf-8"?>
<!-- Generator: Adobe Illustrator 26.0.1, SVG Export Plug-In . SVG Version: 6.00 Build 0)  -->
<svg version="1.1" id="Layer_1" xmlns:v="https://vecta.io/nano"
	 xmlns="http://www.w3.org/2000/svg" xmlns:xlink="http://www.w3.org/1999/xlink" x="0px" y="0px" viewBox="0 0 16 16"
	 style="enable-background:new 0 0 16 16;" xml:space="preserve">
<style type="text/css">
	.st0{fill:#72D6CE;}
	.st1{fill:#FDF7ED;}
	.st2{fill:#417089;}
	.st3{fill:#F78697;}
	.st4{fill:#DC4A7B;}
	.st5{fill:#222222;}
</style>
<path class="st0" d="M4,2h8v9H4V2z"/>
<path class="st1" d="M12,3h-2V2h2v2 M12,11h-1V8h1V11 M14,8h-2V7h1V5h1V8"/>
<path class="st2" d="M4,13H3v-2h3v1H4l0,0 M11,12v-1h2v1H11 M12,8H7V7H6V4h1V3h5v1h1v2h-1V4h-1v2h-1V4H9v2H8V4H7v3h5V8"/>
<path class="st3" d="M9,2H7l0,0H6V1h3V2"/>
<polygon class="st4" points="3,1 3,2 2,2 2,5 4,5 4,2 7,2 7,1 "/>
<path class="st5" d="M14,13h-3v-1H6v1H4v1H2v-3h1V5H2V4H1V2h1V1h1V0h6v1h1v1h2v1h1l0,0l1,0.1V4h1v3h-1v1h-1v3h1V13 M4,3L4,3v8H3v2h1
	v-1h2v-1h5v1h2v-1h-1V7h2V4h-2V2V1h-2v1H9V1H3v1H2v2h1V3H4"/>
<g id="Layer_2">
</g>
<rect x="12" y="2" class="st5" width="1" height="1"/>
<rect x="4" y="9" class="st2" width="8" height="1"/>
<g id="Layer_3">
	<rect x="2" y="2.5" class="st4" width="1" height="2.5"/>
</g>
<g id="Layer_4">
	<polyline class="st5" points="1,4 2,4 2,5 3,5 3,6 1,6 	"/>
</g>
</svg>
