<?xml version="1.0" encoding="utf-8"?>
<!-- Generator: Adobe Illustrator 26.0.1, SVG Export Plug-In . SVG Version: 6.00 Build 0)  -->
<svg version="1.1" id="Layer_1" xmlns:v="https://vecta.io/nano"
	 xmlns="http://www.w3.org/2000/svg" xmlns:xlink="http://www.w3.org/1999/xlink" x="0px" y="0px" viewBox="0 0 16 16"
	 style="enable-background:new 0 0 16 16;" xml:space="preserve">
<style type="text/css">
	.st0{fill:#72D6CE;}
	.st1{fill:#FDF7ED;}
	.st2{fill:#417089;}
	.st3{fill:#F78697;}
	.st4{fill:#DC4A7B;}
	.st5{fill:#222222;}
</style>
<path class="st0" d="M4,12V3h8v9H4"/>
<path class="st1" d="M11,4h-1V3h2v1 M12,12h-2v-1h1V9h1V7h1v4h-1V12"/>
<path class="st2" d="M6,13H2v-1h4l0,0 M11,14v-1h-1v-1h2v2H11 M12,9H7V8H6V5h1V4h5v1h1v2h-1V5h-1v2h-1V5H9v2H8V5H7v3h5V9"/>
<path class="st3" d="M9,3L7,3l0,0H6V2H4V1h3v1h2V3"/>
<path class="st4" d="M4,1H2v1h2V1 M5,3V2h1v1H5 M6,5 M6,5 M9,5"/>
<path class="st5" d="M1,2V0h6v1h2v1h1l0,0h2v1h1v1h1v1h1v3h-1v1h-1v6h-2v-1h-1v-1H6v1H1v-2h1v-1h1v-1V5l0,0V3h1h1H2V2H1 M10,12v1h1
	v1h1V8h2V5h-2V3h-2l0,0L9,3V2H7V1H2v1h3v1l0,0H4v1v1l0,0v7H2v1h4v-1H10"/>
<rect x="4" y="10" class="st2" width="8" height="1"/>
</svg>
