<svg xmlns="http://www.w3.org/2000/svg" viewBox="0 0 16 16" xmlns:v="https://vecta.io/nano"><path d="M1 1h14v14H1z" fill="#796755"/><g fill="#5a4e44"><path d="M15 14H1v-4h1v1h4v1h3v-1h1v-1h5v4M2 7H1V6h1v1"/><path d="M5 6H3V5h2v1m2-4H6V1h1v1m4 0h-1V1h1v1m1 5h-1V6h1v1M8 9H7V8h1v1m3 1h-1V9h1v1m2-4H8V5h1V4h2V3h1v1h1v2"/></g><path d="M4 11H2v-1H1V8h1v2h2v1m5 1H6v-1h3v-1h1v1H9v1m5-2h-3V9h3V8h1v1h-1v1M7 8H6V7h1v1M4 5H2V4H1V2h1v1h1v1h1v1m5 0H7V4h2V3h1v1H9v1m6 0h-2V4h-1V3h-1V2h1v1h1v1h2v1" fill="#a08662"/><g fill="#423934"><path d="M14 15h-3v-5h3V9h1v1h-1v5M4 15H2v-4h2v4"/><path d="M9 15H6v-3h3v1h1v1H9v1m1-5H9V9H8V8h1V7h1v1h1v1h-1v1M6 8H5V7H4V6h3v1H6v1M3 6H2V5H1V4h1v1h1v1"/><path d="M6 4H5V2H4V1h1v1h1v2m5 1h-1V2h1v3m3 1h-2V5h2v1M9 6H8V5h1v1"/></g><g fill="#060608"><path d="M1 15v-1h1v1H1M15 2h-1V1h-4v1H9V1H6v1H5V1H2V0h12v1h1v1"/><path d="M1 14H0V2h1V1h1v1H1v3h1v1H1v8m13 2H2v-1h2v-5h1V8h2v1H6v1H5v4h1v1h3v-1h1v-4h1v5h3v-1h1V6h-1V5h1V2h1v12h-1v1h-1v1"/><path d="M9 6H8 5V5h1V4h1v1h1v1"/><path d="M11 8h-1V6H9V5h3v1h-1v2"/></g></svg>