<svg xmlns="http://www.w3.org/2000/svg" viewBox="0 -0.5 16 16" shape-rendering="crispEdges">
<metadata>Made with Pixels to Svg https://codepen.io/shshaw/pen/XbxvNj</metadata>
<path stroke="#3e3546" d="M4 0h8M2 1h2M5 1h1M9 1h1M12 1h2M1 2h1M14 2h1M1 3h1M14 3h1M0 4h1M6 4h1M15 4h1M0 5h2M5 5h3M9 5h3M14 5h2M0 6h1M10 6h1M15 6h1M0 7h1M10 7h1M15 7h1M0 8h1M5 8h2M15 8h1M0 9h1M5 9h1M15 9h1M0 10h1M4 10h1M10 10h1M15 10h1M0 11h1M4 11h1M10 11h1M15 11h1M1 12h1M4 12h1M10 12h1M14 12h1M1 13h1M4 13h1M10 13h1M14 13h1M2 14h4M9 14h2M12 14h2M4 15h8" />
<path stroke="#a24b6f" d="M4 1h1M5 2h1M10 2h2M2 3h1M5 3h1M9 3h2M12 3h1M1 4h3M7 4h2M10 4h1M13 4h2M2 5h1M8 5h1M12 5h2M4 6h3M5 7h2M9 7h1M1 8h1M8 8h3M14 8h1M1 9h1M9 9h1M11 9h4M2 10h2M9 10h1M11 10h3M2 11h2M6 11h3M11 11h3M2 12h2M6 12h3M11 12h3M2 13h2M6 13h4M11 13h3M6 14h3M11 14h1" />
<path stroke="#cf657f" d="M6 1h1M10 1h1M11 3h1M9 4h1M11 4h2M3 5h2M1 6h1M11 6h1M7 8h1M10 9h1M1 10h1M14 10h1M1 11h1M5 11h1M9 11h1M14 11h1M5 12h1M9 12h1M5 13h1" />
<path stroke="#fca790" d="M7 1h2M11 1h1M2 2h3M6 2h4M12 2h2M3 3h2M6 3h3M13 3h1M4 4h2M2 6h2M7 6h3M12 6h3M1 7h4M7 7h2M11 7h4M2 8h3M11 8h3M2 9h3M6 9h3M5 10h4" />
</svg>