<svg xmlns="http://www.w3.org/2000/svg" viewBox="0 0 16 16" xmlns:v="https://vecta.io/nano"><path d="M1 5H0v6h1v2h1v1h1v1h2v1h6v-1h2v-1h1v-1h1v-2h1V5h-1V3h-1V2h-1V1h-2V0H5v1H3v1H2v1H1v2" fill="#44240a"/><path d="M1 5v6h1v2h1v1h2v1h6v-1h2v-1h1v-2h1V5h-1V3h-1V2h-2V1H5v1H3v1H2v2z" fill="#f2db3b"/><path d="M4 3H3v1H2v2H1v5h1v1h1v1h10v-1h1v-1h1V6h-1V4h-1V3H4" fill="#e4a51e"/><path d="M5 3H4v1H3v1H2v5H1v1h2v1H2v1h1v-1h1v1H3v1h2v1h6v-1h2v-1h-1v-1h1v1h1v-1h-1v-1h2v-1h-1V5h-1V4h-1V3H5" fill="#a26619"/><path d="M8 10H5V7h1V6h1v1h2V6h1v1h1v1H9v1H8v1" fill="#4c4c4c"/><path d="M5 9H4V7h1V5h6v1H6v1H5v2m6-1h1v1h-1z" fill="#333"/><path d="M5 7H4V5h1V4h6v1h1v2h-1V5H5v2m0 4h4v1H5z" fill="#262626"/><path d="M4 9v1h1v1h3v-1H5V9H4m7-2h-1V6h1v1h1v1h-1V7" fill="#dae0ea"/><g fill="#6d758d"><path d="M12 8h1v2h-1zM3 8h1v2H3z"/><path d="M4 10h1v1H4z"/></g><path d="M6 2V1h4v1h1v2h1v1h1v3h1v2h-1v1h-1v1h-1v1H5v-1H4v-1H3v-1H2V8h1V5h1V4h1V2h1m3 10v-1H8V9h1V8h2v1h1v1h1V8h-1V5h-1V4h-1v2H9v1H7V6H6V4H5v1H4v3H3v2h1v1h1v1h4"/><path d="M9 9h2v1H9z" fill="#fa6a0a"/><path d="M9 10h2v1H9z" fill="#df3e23"/><path d="M6 2h4v1H6z" fill="#249fde"/><path d="M6 3h4v1H6z" fill="#285cc4"/><path d="M8 4h1v2H8z" fill="#4a5462"/><path d="M7 4h1v2H7z" fill="#333941"/></svg>