<svg xmlns="http://www.w3.org/2000/svg" viewBox="0 -0.5 16 16" shape-rendering="crispEdges">
<metadata>Made with Pixels to Svg https://codepen.io/shshaw/pen/XbxvNj</metadata>
<path stroke="#2e222f" d="M2 0h12M1 1h1M14 1h1M0 2h1M15 2h1M0 3h1M15 3h1M0 4h1M15 4h1M0 5h1M0 6h1M0 7h1M15 7h1M0 8h1M15 8h1M0 9h1M15 9h1M0 10h1M15 10h1M0 11h1M15 11h1M0 12h1M15 12h1M0 13h1M15 13h1M1 14h1M14 14h1M2 15h12" />
<path stroke="#ffffff" d="M2 1h12M13 2h2M14 3h1M14 4h1M14 5h1M14 6h1M14 7h1M14 8h1M14 9h1M14 10h1M14 11h1M14 12h1M14 13h1" />
<path stroke="#4d65b4" d="M1 2h1M1 3h1M1 4h1M1 5h1M1 6h1M1 7h1M1 8h1M1 9h1M1 10h1M1 11h1M1 12h1M1 13h2M2 14h12" />
<path stroke="#8fd3ff" d="M2 2h1M4 2h1M11 2h1M4 3h2M10 3h2M2 4h2M5 4h2M9 4h2M12 4h2M2 5h3M6 5h1M9 5h1M11 5h3M2 6h1M5 6h1M10 6h1M13 6h1M7 7h2M7 8h2M2 9h1M5 9h1M10 9h1M13 9h1M2 10h3M6 10h1M9 10h1M11 10h3M2 11h2M5 11h2M9 11h2M12 11h2M4 12h2M10 12h2M4 13h1M11 13h1M13 13h1" />
<path stroke="#4d9be6" d="M3 2h1M5 2h6M12 2h1M2 3h2M6 3h4M12 3h2M4 4h1M7 4h2M11 4h1M5 5h1M7 5h2M10 5h1M3 6h2M6 6h4M11 6h2M2 7h5M9 7h5M2 8h5M9 8h5M3 9h2M6 9h4M11 9h2M5 10h1M7 10h2M10 10h1M4 11h1M7 11h2M11 11h1M2 12h2M6 12h4M12 12h2M3 13h1M5 13h6M12 13h1" />
<path stroke="#323353" d="M15 5h1M15 6h1" />
</svg>