<?xml version="1.0" encoding="iso-8859-1"?>
<!-- Generator: Adobe Illustrator 19.0.0, SVG Export Plug-In . SVG Version: 6.00 Build 0)  -->
<svg version="1.1" id="Layer_1" xmlns="http://www.w3.org/2000/svg" xmlns:xlink="http://www.w3.org/1999/xlink" x="0px" y="0px"
	 viewBox="0 0 512 512" style="enable-background:new 0 0 512 512;" xml:space="preserve">
<g>
	<g>
		<polygon points="512,238.545 418.496,238.545 454.522,202.518 429.837,177.834 369.128,238.545 286.231,238.545 327.679,166.757 
			410.614,144.535 401.578,110.814 352.364,124.002 399.116,43.025 368.884,25.571 322.132,106.547 308.944,57.334 275.224,66.37 
			297.448,149.302 256,221.091 214.554,149.304 236.774,66.368 203.055,57.334 189.868,106.547 143.116,25.571 112.884,43.025 
			159.636,124.001 110.422,110.815 101.388,144.536 184.32,166.756 225.769,238.545 142.874,238.545 82.16,177.833 57.477,202.517 
			93.504,238.545 0,238.545 0,273.455 93.504,273.455 57.477,309.483 82.16,334.167 142.874,273.455 225.769,273.455 
			184.321,345.243 101.384,367.465 110.42,401.186 159.637,387.997 112.884,468.975 143.116,486.429 189.867,405.453 
			203.055,454.668 236.774,445.632 214.551,362.698 256,290.909 297.448,362.697 275.224,445.633 308.944,454.667 322.131,405.452 
			368.884,486.429 399.116,468.975 352.364,387.998 401.578,401.186 410.612,367.465 327.68,345.244 286.231,273.455 
			369.126,273.455 429.839,334.167 454.522,309.483 418.495,273.455 512,273.455 		"/>
	</g>
</g>
<g>
</g>
<g>
</g>
<g>
</g>
<g>
</g>
<g>
</g>
<g>
</g>
<g>
</g>
<g>
</g>
<g>
</g>
<g>
</g>
<g>
</g>
<g>
</g>
<g>
</g>
<g>
</g>
<g>
</g>
</svg>
