<svg xmlns="http://www.w3.org/2000/svg" viewBox="0 0 16 16" xmlns:v="https://vecta.io/nano"><path d="M1 1h14.1v14.1H1z" fill="#a1a1a1"/><path d="M15 10V9h-1v1h-4V7H9v4h5v-1h1m-7 0V9H7v1H3V9H2V6H1v4h1v1h5v-1h1m6-6H6V3H5V2h1v1h8v1M4 4H2V3h2v1" fill="#fff"/><path d="M15 14v-3h-5v4h4v-1h1m-7 1H2v-4h6v4m1-5H8V5H2V4h2V2h1v2h8v1h-3v1H9v4" fill="#00648c"/><path d="M9 6H7V4h2v2M5 5H4V4h1v1M2 5H1V4h1v1m7 10H8v-5h1v5m6-10h-2V4h2v1"/><g opacity=".929" enable-background="new"><path d="M14 1h1v1h-1z"/><path d="M15 2h1v12h-1V2m-1 13v1H2v-1h12M1 14H0V1h1V0h13v1H2v1H1v12"/><path d="M4 1h1v1H4zM1 14h1v1H1z"/></g></svg>