<svg xmlns="http://www.w3.org/2000/svg" viewBox="0 -0.5 14 16" shape-rendering="crispEdges">
<metadata>Made with Pixels to Svg https://codepen.io/shshaw/pen/XbxvNj</metadata>
<path stroke="#625565" d="M0 0h14M0 1h1M13 1h1M1 3h1M10 3h1M1 4h2M10 4h2M1 6h1M10 6h1M1 7h2M10 7h2M1 10h1M3 10h8M12 10h1M1 11h12M1 12h1M3 12h8M12 12h1M1 13h12M0 14h1M13 14h1M0 15h14" />
<path stroke="#3e3546" d="M1 1h12M0 2h1M13 2h1M0 3h1M2 3h1M11 3h1M13 3h1M0 4h1M13 4h1M0 5h1M13 5h1M0 6h1M2 6h1M11 6h1M13 6h1M0 7h1M13 7h1M0 8h14M0 9h1M13 9h1M0 10h1M2 10h1M11 10h1M13 10h1M0 11h1M13 11h1M0 12h1M2 12h1M11 12h1M13 12h1M0 13h1M13 13h1M1 14h12" />
<path stroke="#9babb2" d="M1 2h12M12 3h1M12 4h1M12 5h1M12 6h1M12 7h1M1 9h12" />
<path stroke="#7f708a" d="M3 3h7M3 4h7M1 5h11M3 6h7M3 7h7" />
</svg>