<svg xmlns="http://www.w3.org/2000/svg" viewBox="0 -0.5 16 16" shape-rendering="crispEdges">
<metadata>Made with Pixels to Svg https://codepen.io/shshaw/pen/XbxvNj</metadata>
<path stroke="#000010" d="M0 0h16M0 1h16M0 2h16M0 3h16M0 4h16M0 5h16M0 6h16M0 7h16M0 8h16M0 9h11M12 9h4M0 10h11M12 10h4M0 11h9M14 11h2M0 12h11M12 12h4M0 13h11M12 13h4M0 14h16M0 15h16" />
<path stroke="#210a36" d="M11 9h1M9 11h1M13 11h1M11 13h1" />
<path stroke="#954f08" d="M11 10h1M10 11h1M12 11h1M11 12h1" />
<path stroke="#b1a914" d="M11 11h1" />
</svg>