<svg xmlns="http://www.w3.org/2000/svg" viewBox="0 -0.5 16 16" shape-rendering="crispEdges">
<metadata>Made with Pixels to Svg https://codepen.io/shshaw/pen/XbxvNj</metadata>
<path stroke="#000010" d="M0 0h16M0 1h16M0 2h16M0 3h16M0 4h11M12 4h4M0 5h11M12 5h4M0 6h9M14 6h2M0 7h11M12 7h4M0 8h11M12 8h4M0 9h16M0 10h16M0 11h16M0 12h16M0 13h16M0 14h16M0 15h16" />
<path stroke="#000000" d="M11 4h1M9 6h1M13 6h1M11 8h1" />
<path stroke="#00b2c3" d="M11 5h1M10 6h1M12 6h1M11 7h1" />
<path stroke="#9ad8ec" d="M11 6h1" />
</svg>