<svg xmlns="http://www.w3.org/2000/svg" viewBox="0 -0.5 16 16" shape-rendering="crispEdges">
<metadata>Made with Pixels to Svg https://codepen.io/shshaw/pen/XbxvNj</metadata>
<path stroke="#000010" d="M0 0h16M0 1h16M0 2h16M0 3h16M0 4h16M0 5h16M0 6h16M0 7h16M0 8h16M0 9h12M13 9h3M0 10h12M13 10h3M0 11h10M15 11h1M0 12h12M13 12h3M0 13h12M13 13h3M0 14h16M0 15h16" />
<path stroke="#0b00c2" d="M12 9h1M10 11h1M14 11h1M12 13h1" />
<path stroke="#6f29e6" d="M12 10h1M11 11h1M13 11h1M12 12h1" />
<path stroke="#ac88cd" d="M12 11h1" />
</svg>