<svg xmlns="http://www.w3.org/2000/svg" viewBox="0 -0.5 16 16" shape-rendering="crispEdges">
<metadata>Made with Pixels to Svg https://codepen.io/shshaw/pen/XbxvNj</metadata>
<path stroke="#2e222f" d="M4 0h3M3 1h1M7 1h1M2 2h1M4 2h1M10 2h2M2 3h1M5 3h1M8 3h2M12 3h2M2 4h1M5 4h1M7 4h1M14 4h1M3 5h1M5 5h1M10 5h3M14 5h1M3 6h1M6 6h1M9 6h1M13 6h1M15 6h1M3 7h1M10 7h1M14 7h1M0 8h1M4 8h2M12 8h1M1 9h1M6 9h1M9 9h1M12 9h1M0 10h1M2 10h2M10 10h1M13 10h1M0 11h1M7 11h2M10 11h1M13 11h1M1 12h2M5 12h2M10 12h1M13 12h1M3 13h2M11 13h1M13 13h1M8 14h1M12 14h1M9 15h3" />
<path stroke="#6f29ae" d="M4 1h2M4 3h1M4 4h1M11 4h2M4 5h1M7 5h3M13 5h1M4 6h2M7 6h2M14 6h1M4 7h3M9 7h1M6 8h1M9 8h3M0 9h1M7 9h2M10 9h2M1 10h1M4 10h5M11 10h2M2 11h2M11 11h1M11 12h1M9 14h2" />
<path stroke="#eaaded" d="M6 1h1M13 4h1M1 11h1M11 14h1" />
<path stroke="#c957d1" d="M3 2h1M3 3h1M10 3h2M3 4h1M8 4h3M4 11h3M12 11h1M3 12h2M12 12h1M12 13h1" />
</svg>