<svg xmlns="http://www.w3.org/2000/svg" viewBox="0 0 16 16" xmlns:v="https://vecta.io/nano"><path d="M9 16v-2H8v-2H7v-1H5V6h1v3h1v1h6V9h1v3h-1v3h-1v1zM7 6h2v1H7zm5 0h2v1h-2z" fill="#fdf7ed"/><g fill="#d3bfa9"><path d="M4 6h1v5H4zm2 5h1v1H6z"/><path d="M7 12h1v1H7zm1 2h1v2H8zm4 1h1v1h-1z"/></g><path d="M9 6h3v4H9z" fill="#b58057"/><g fill="#8a503e"><path d="M7 5h7v1H7z"/><path d="M6 6h1v3H6z"/><path d="M7 9h2v1H7zm5 0h1v1h-1z"/></g><path d="M8 14H4v-1h1v-2h1v1h1v1h1zm6-10H7V3H5V2h1V1h5v1h-1v1h4z" fill="#5698cc"/><path d="M4 7H2V6h1V1h3v1H5v1h2v2H4zm6-5h3v1h-3zM3 14h5v1H3z" fill="#5956bd"/><g fill="#1f1833"><path d="M7 7h2v2H7zm5 0h2v2h-2z"/><path d="M14 9h1v3h-1z"/><path d="M13 12h1v4h-1zm-5 3v1H2v-2h1v1zm-4-4h1v2H4z"/><path d="M3 13h1v1H3zm1-2H3V8H2V7h2z"/><path d="M1 6h1v1H1z"/><path d="M2 5v1h1V5H2m2 0H3V4H2V2h1v1h1V2h1v1h1v1H4v1M3 1v1h1V1H3m8 0H4V0h7v1m0 1V1h2v1h-2m2 1V2h1v1h-1M3 7V6h1v1H3m4-1H4V5h3v1m8 1h-1V5H7V4h7V3h1v1h1v1h-1v2"/></g></svg>