<svg xmlns="http://www.w3.org/2000/svg" viewBox="0 0 16 16" xmlns:v="https://vecta.io/nano"><path d="M5 12V7h1v3h1v1h6v-1h1v3h-1v3H7v-1h2v-1H8v-1H7v-1zm2-5h2v1H7zm5 0h2v1h-2z" fill="#fdf7ed"/><g fill="#d3bfa9"><path d="M4 8h1v4H4zm2 4h1v1H6z"/><path d="M7 13h1v1H7z"/><path d="M8 14h1v1H8zm-2 1h1v1H6zm7 0h1v1h-1z"/></g><path d="M9 7h3v4H9z" fill="#b58057"/><g fill="#8a503e"><path d="M12 10h1v1h-1zm-5 0h2v1H7z"/><path d="M6 7h1v3H6z"/></g><path d="M7 14H4v-1h1v-1h1v1h1zm7-8H8V5H7V4H6V3h1V2H6V1h2v1h2v1h2v1h1v1h1z" fill="#5698cc"/><path d="M7 3H5V2H4V1h2v1h1zm1 3H5v1H3V6h1V5h1V4h2v1h1zm-6 8h6v1H2zm11-9h-2V4h2v1" fill="#5956bd"/><g fill="#1f1833"><path d="M7 8h2v2H7zm5 0h2v2h-2z"/><path d="M1 16v-2h1v-1h1V8H2V6h1V5h1V2H3V0h5v1h2v1h2v1h1v1h1v1h1v1h1v1h-1v1h-1v2h1v3h-1v2h1v1H1zm4-9V6h9V5h-1V4h-1V3h-2V2H8V1H4v1h1v1h1v1H5v1H4v1H3v1h2m1 8v1h8v-1h-1v-2h1V7H5v1H4v4h1v1H4v1H2v1h4"/></g></svg>