<svg xmlns="http://www.w3.org/2000/svg" viewBox="0 0 16 16" xmlns:v="https://vecta.io/nano"><path d="M9 5h3v4H9V5" fill="#b58057"/><path d="M12 8h1v1h-1zM9 8v1H7V8H6V5h1v3z" fill="#8a503e"/><path d="M9 14H5v-3h2v1h1v1h1v1m5-10H8V3H7V2H5V1h5v1h1v1h3v1" fill="#5698cc"/><path d="M9 15H4v-1h5v1m-3-4H5V9.9h1V11M3 6H2V5h1v1m1-1H3V3h2V2H3V1h2v1h2v1h1v1H4v1m8-2h-1V2h1v1" fill="#5956bd"/><path d="M5 10H4V5h1v5m1 1v-1h1v1h1v1h1v1H8v-1H7v-1zm3 4h1v1H9v-1m3-1v1h1v-1h-1" fill="#d3bfa9"/><path d="M5 5h1v3h1v1h6V8h1v3h-1v3h-1v2h-2v-1H9v-3H8v-1H7v-1H5zm2 0h2v1H7zm5 0h2v1h-2z" fill="#fdf7ed"/><g fill="#1f1833"><path d="M7 6h2v2H7V6m5 0v2h2V6h-2"/><path d="M14 6V5H4v5H3V7H2V6H1V5h1V3h1V2H2V1h1V0h7v1h2v1h2v1h1v1h1v1h-1v1h-1M3 6V5H2v1h1m1-1V4h10V3h-2V2h-2V1H3v1h2v1H3v2h1m10 3h1v3h-1V8m-1 3h1v5h-2v-1h1v-4m-9-1h1v4H4v-4m-1 4h1v1h5v1H3v-2"/></g></svg>