<svg xmlns="http://www.w3.org/2000/svg" viewBox="0 0 16 16" xmlns:v="https://vecta.io/nano"><path d="M5 11V6h1v3h1v1h6V9h1v3h-1v3h-1v1H9v-2H8v-1H7v-1H6v-1zm2-5h2v1H7zm5 0h2v1h-2z" fill="#fdf7ed"/><path d="M4 11V7h1v4H4m2 1v-1h1v1H6m1 1v-1h1v1H7m1 3v-2h1v2H8m4 0v-1h1v1h-1" fill="#d3bfa9"/><path d="M9 6h3v4H9z" fill="#b58057"/><g fill="#8a503e"><path d="M12 9h1v1h-1zM7 9h2v1H7z"/><path d="M6 6h1v3H6z"/></g><path d="M5 13v-2h1v1h1v1h1v1H4v-1zm10-8H7V4H6V3h1V2h2V1h1v1h2v1h-1v1h4z" fill="#5698cc"/><g fill="#5956bd"><path d="M10 3h4v1h-4zM9 2V1H4v1h2v1h1V2z"/><path d="M4 3h2v1h1v1H5v1H4v1H3V4h1zM3 14h5v1H3z"/></g><g fill="#1f1833"><path d="M12 7h2v2h-2zM7 7h2v2H7z"/><path d="M14 9h1v3h-1v4H2v-2h1v-1h1v-2H3V7H2V4h1V3h1V2H3V0h7v1h2v1h2v1h1v1h1v2h-1v1h-1v2zM4 7V6h1V5h10V4h-1V3h-2V2h-2V1H4v1h2v1H4v1H3v3h1m-1 8h5v1h5v-4h1V9h-2V7h2V6H5v1H4v4h1v2H4v1H3v1"/></g></svg>